<svg width="1076" height="1076" viewBox="0 0 1076 1076" fill="none" xmlns="http://www.w3.org/2000/svg">
<g filter="url(#filter0_d)">
<path d="M1059.57 317.926L975.331 273.093C961.755 258.249 947.1 244.142 931.453 230.856C931.453 230.856 947.646 184.369 944.939 144.54H944.988C983.501 179.825 1026.3 235.966 1059.57 317.926Z" fill="#7B2D5C"/>
<path d="M144.437 230.982L144.461 231.003C128.863 244.24 114.258 258.297 100.731 273.093L16.4951 317.926C49.7663 235.966 92.2905 180.244 130.803 144.959L131.025 144.98C128.416 184.767 144.437 230.982 144.437 230.982V230.982Z" fill="#7B2D5C"/>
<path d="M774.794 142.53C789.789 147.458 804.424 153.143 818.622 159.555C845.365 171.631 870.646 185.918 894.098 202.21C907.12 211.207 919.588 220.768 931.454 230.856C947.102 244.142 961.756 258.249 975.332 273.093C975.332 273.093 1086.64 397.185 1053.54 532.417C1051.4 512.67 1038.36 494.766 1024.82 481.134C1016.06 472.297 1007.82 463.126 1000.09 453.619L1000.06 453.64C1009.39 475.878 1032.42 566.822 996.003 692.128C1009.78 644.112 958.819 563.723 957.417 561.503C958.45 564.497 1009.78 713.948 886.1 837.873C908.445 802.044 869.637 718.869 869.637 718.869C869.637 718.869 877.438 852.384 787.984 900.882C820.517 847.777 808.754 761.566 808.754 761.566C808.754 761.566 797.926 883.187 694.003 954.761C719.203 921.655 702.444 854.709 702.444 854.709C702.444 854.709 687.113 951.432 621.333 995.616C623.966 967.66 610.604 915.289 610.604 915.289C610.604 915.289 607.651 1014.5 540.124 1056.95C539.54 1057.32 538.832 1057.52 538.106 1057.52C537.379 1057.52 536.672 1057.32 536.088 1056.95C468.537 1014.5 465.46 915.289 465.46 915.289C465.46 915.289 452.098 967.66 454.731 995.616C388.951 951.432 373.62 854.709 373.62 854.709C373.62 854.709 356.861 921.655 382.061 954.761C278.138 883.187 267.31 761.566 267.31 761.566C267.31 761.566 255.547 847.777 288.08 900.882C198.626 852.384 206.427 718.869 206.427 718.869C206.427 718.869 167.619 802.044 189.964 837.873C66.2797 713.948 117.614 564.497 118.647 561.503C117.245 563.723 66.2797 644.112 80.0607 692.128C43.6396 566.822 66.6735 475.878 76.0002 453.64L75.9756 453.619C68.2484 463.105 60.0045 472.277 51.2437 481.134C37.7088 494.766 24.6661 512.67 22.5251 532.417C-10.5738 397.185 100.732 273.093 100.732 273.093C114.259 258.297 128.864 244.24 144.462 231.003C156.825 220.482 169.837 210.529 183.443 201.184C206.77 185.103 231.892 171.005 258.45 159.094C271.051 153.457 283.988 148.383 297.209 143.891C297.209 143.891 256.457 106.974 213.047 93.3834L213.293 92.7971C248.262 79.8141 275.209 79.6675 275.209 79.6675L169.982 59.2298C169.982 59.2298 292.928 15.6322 399.779 59.2298L310.621 10.6065C310.621 10.6065 463.295 6.04156 528.041 59.6905C530.316 61.5927 533.378 62.6586 536.568 62.6586C539.757 62.6586 542.82 61.5927 545.095 59.6905C610.087 6.02062 765.443 10.6065 765.443 10.6065L676.285 59.2298C783.136 15.6322 906.082 59.2298 906.082 59.2298L800.855 79.6675C800.855 79.6675 827.802 79.8141 862.771 92.7971L862.845 92.9855C818.056 106.031 774.794 142.53 774.794 142.53V142.53Z" fill="#6980B8"/>
<path d="M944.94 144.54C943.291 120.061 934.481 98.0739 910.414 90.9124C895.697 86.5359 879.16 88.1901 862.845 92.9855C818.056 106.031 774.794 142.53 774.794 142.53C789.789 147.458 804.424 153.143 818.622 159.555L894.098 202.21C907.12 211.207 919.588 220.768 931.454 230.856C931.454 230.856 947.647 184.369 944.94 144.54V144.54Z" fill="#DFA97A"/>
<path d="M890.529 136.625C909.183 147.702 912.505 179.72 894.097 202.21C870.645 185.918 845.365 171.631 818.622 159.555C837.005 137.065 871.851 125.548 890.529 136.625Z" fill="#C39196"/>
<path d="M213.047 93.3833C196.977 88.3367 180.539 86.494 165.65 90.9124C141.435 98.0949 132.65 120.313 131.025 144.98C128.417 184.767 144.437 230.982 144.437 230.982L144.462 231.003C156.825 220.482 169.837 210.528 183.442 201.184L258.45 159.094C271.051 153.457 283.988 148.383 297.209 143.891C297.209 143.891 256.457 106.974 213.047 93.3833V93.3833Z" fill="#DFA97A"/>
<path d="M258.45 159.094C231.892 171.005 206.769 185.103 183.442 201.184C165.059 178.694 166.88 147.702 185.534 136.625C204.187 125.548 240.067 136.625 258.45 159.094V159.094Z" fill="#C39196"/>
<path d="M528.558 995.616C462.779 951.432 447.447 854.709 447.447 854.709C447.447 854.709 430.689 921.655 455.888 954.761C418.396 928.94 393.025 896.608 375.909 865.819C382.133 892.497 402.568 960.574 454.736 995.616C452.103 967.66 465.466 915.289 465.466 915.289C465.466 915.289 468.542 1014.5 536.093 1056.95C536.678 1057.32 537.385 1057.52 538.111 1057.52C538.838 1057.52 539.545 1057.32 540.129 1056.95C554.166 1047.88 566.01 1036.59 575.01 1023.69C541.209 976.813 539.292 915.289 539.292 915.289C539.292 915.289 525.925 967.66 528.558 995.616V995.616Z" fill="#8623D2"/>
<path d="M785.62 39.8641L750.111 59.2297C772.537 50.2095 796.519 44.3116 821.142 41.7613C809.35 40.5857 797.492 39.9524 785.62 39.8641V39.8641Z" fill="#8623D2"/>
<path d="M473.606 59.2297L391.882 14.6605C364.954 11.5633 337.79 10.2081 310.621 10.6064L364.268 39.8642C398.918 39.6464 437.194 44.3726 473.606 59.2297V59.2297Z" fill="#8623D2"/>
<path d="M382.061 954.761C360.951 927.028 369.281 875.569 372.542 859.59C356.163 828.499 345.568 795.429 341.136 761.566C341.136 761.566 329.373 847.777 361.906 900.882C272.453 852.384 280.254 718.869 280.254 718.869C280.254 718.869 241.446 802.044 263.791 837.873C240.706 814.838 221.995 788.874 208.337 760.921C213.505 804.322 230.977 869.922 288.07 900.882C255.537 847.777 267.3 761.566 267.3 761.566C267.3 761.566 278.138 883.187 382.061 954.761V954.761Z" fill="#8623D2"/>
<path d="M192.474 561.503C191.071 563.723 140.106 644.112 153.887 692.128C117.466 566.822 140.5 475.878 149.827 453.64L149.802 453.619C142.075 463.105 133.831 472.277 125.07 481.134C111.535 494.766 98.4927 512.67 96.3518 532.417C63.2528 397.185 174.559 273.093 174.559 273.093C188.085 258.297 202.691 244.24 218.289 231.003C230.652 220.482 243.664 210.529 257.269 201.184C280.596 185.103 305.719 171.005 332.277 159.094C344.878 153.457 357.815 148.383 371.036 143.891C371.036 143.891 330.284 106.974 286.874 93.3834L287.12 92.797C322.089 79.8141 349.036 79.6675 349.036 79.6675L243.808 59.2298C271.145 50.3903 299.684 44.5212 328.748 41.7614C244.989 32.6315 169.982 59.2298 169.982 59.2298L275.209 79.6675C275.209 79.6675 248.262 79.8141 213.293 92.797L213.047 93.3834C256.457 106.974 297.209 143.891 297.209 143.891C283.988 148.383 271.051 153.457 258.45 159.094C231.892 171.005 206.769 185.103 183.443 201.184C169.837 210.529 156.825 220.482 144.462 231.003C128.864 244.24 114.259 258.297 100.732 273.093C100.732 273.093 -10.5738 397.185 22.5251 532.417C24.6661 512.67 37.7088 494.766 51.2437 481.134C60.0044 472.298 68.2484 463.126 75.9756 453.619L76.0002 453.64C66.6735 475.878 43.6396 566.822 80.0607 692.128C66.2797 644.112 117.245 563.723 118.647 561.503C117.614 564.498 66.2797 713.948 189.964 837.873C174.389 812.899 188.524 764.929 198.52 738.151C163.598 645.599 191.711 563.712 192.474 561.503Z" fill="#8623D2"/>
<path d="M765.443 10.6064C765.443 10.6064 646.88 7.10941 573.575 42.0168C583.863 46.8509 593.375 52.794 601.875 59.6988C604.151 61.601 607.213 62.6669 610.402 62.6669C613.592 62.6669 616.654 61.601 618.929 59.6988C652.565 31.9236 710.398 19.7531 758.378 14.4678L765.443 10.6064Z" fill="#8623D2"/>
<path d="M669.099 672.696C669.099 672.696 672.52 758.132 546.473 761.566C545.39 761.587 544.307 761.629 543.249 761.65C541.92 761.671 540.591 761.692 539.238 761.692H536.826C535.473 761.692 534.144 761.671 532.815 761.65C531.757 761.629 530.674 761.587 529.591 761.566C403.544 758.132 406.965 672.696 406.965 672.696C419.044 676.796 431.985 678.735 444.983 678.393C457.981 678.05 470.757 675.434 482.514 670.706C503.139 662.026 522.267 650.978 539.361 637.872C539.866 638.771 540.577 639.576 541.453 640.238C556.959 652.523 574.515 662.79 593.55 670.706C605.307 675.434 618.083 678.05 631.081 678.393C644.079 678.735 657.02 676.796 669.099 672.696Z" fill="#D3A074"/>
<path d="M480.792 672.696H406.965C406.965 672.696 403.544 758.132 529.591 761.566C530.674 761.587 531.757 761.629 532.815 761.65C534.144 761.671 535.473 761.692 536.826 761.692H539.238C540.591 761.692 541.92 761.671 543.249 761.65C544.307 761.629 545.39 761.587 546.473 761.566C556.019 761.333 565.533 760.525 574.945 759.148C477.925 744.668 480.792 672.696 480.792 672.696Z" fill="#CBB4B4"/>
<path d="M716.791 637.872C704.768 655.444 685.458 668.555 662.654 674.63C639.851 680.706 615.202 679.306 593.549 670.707C574.514 662.79 556.959 652.523 541.452 640.239C540.577 639.576 539.866 638.772 539.361 637.872C522.266 650.979 503.139 662.026 482.514 670.707C460.861 679.306 436.212 680.706 413.409 674.63C390.605 668.555 371.296 655.444 359.273 637.872C342.637 621.057 189.496 424.91 303.755 310.764C383.34 231.296 450.252 245.284 496.984 284.421C521.495 304.943 538.327 319.161 538.327 319.161C538.327 319.161 554.569 304.943 579.079 284.421C625.811 245.284 692.723 231.296 772.308 310.764C886.567 424.91 733.426 621.057 716.791 637.872V637.872Z" fill="#DFA97A"/>
<path d="M530.305 556.457C602.679 508.273 622.292 560.1 622.785 561.44C609.348 571.198 589.538 580.245 560.992 587.511C562.468 592.662 562.788 605.499 545.857 608.577C543.889 608.943 542.111 609.839 540.788 611.132H540.763C512.168 607.97 512.365 595.699 513.964 590.191C514.18 589.445 514.05 588.657 513.601 587.99C513.152 587.323 512.418 586.829 511.553 586.611C479.217 577.983 458.545 567.031 445.822 555.368L450.276 555.221C450.276 555.221 474.073 505.655 529.911 556.017L530.305 556.457Z" fill="#50565F"/>
<path d="M702.517 360.33C712.828 375.553 704.88 396.096 686.989 404.891C669.098 413.686 641.413 407.404 631.127 390.84C645.548 362.152 679.237 358.801 702.517 360.309V360.33Z" fill="#E2E4ED"/>
<path d="M444.936 390.84C434.65 407.404 406.94 413.686 389.074 404.891C371.208 396.096 363.235 375.553 373.546 360.33V360.309C396.826 358.801 430.515 362.152 444.936 390.84V390.84Z" fill="#E2E4ED"/>
<path d="M433.099 637.872C416.464 621.057 263.323 424.91 377.582 310.764C404.723 283.663 430.388 267.439 454.285 259.366C412.718 244.629 361.584 253.019 303.755 310.764C189.496 424.91 342.637 621.057 359.273 637.872C370.956 654.948 389.536 667.828 411.551 674.113C433.566 680.399 457.516 679.66 478.938 672.036C459.676 665.224 443.573 653.222 433.099 637.872V637.872Z" fill="#C6946D"/>
<path d="M285.66 547.201C237.028 550.79 208.191 565.306 206.141 566.367C203.355 567.813 201.358 570.142 200.589 572.841C199.821 575.54 200.344 578.388 202.043 580.759C203.742 583.13 206.478 584.829 209.65 585.483C212.822 586.137 216.169 585.692 218.955 584.246C219.418 584.005 247.895 569.684 296.547 567.703C300.898 575.451 305.278 582.768 309.568 589.599C275.691 593.483 246.505 602.803 223.803 617.217C221.188 618.877 219.454 621.354 218.985 624.103C218.516 626.851 219.349 629.645 221.3 631.871C223.252 634.096 226.163 635.571 229.393 635.97C232.622 636.37 235.906 635.661 238.522 634C263.192 618.335 293.742 611.621 322.63 609.41C327.781 616.854 332.54 623.325 336.623 628.64C306.582 635.587 279.089 648.877 256.693 667.276C255.51 668.227 254.561 669.367 253.9 670.631C253.239 671.896 252.878 673.259 252.84 674.642C252.802 676.026 253.086 677.402 253.677 678.691C254.268 679.981 255.153 681.158 256.282 682.154C257.41 683.151 258.76 683.947 260.252 684.497C261.744 685.047 263.35 685.339 264.976 685.358C266.603 685.376 268.217 685.12 269.726 684.605C271.235 684.089 272.61 683.324 273.769 682.354C295.41 664.73 322.387 652.577 351.681 647.253C359.876 657.997 370.657 667.139 383.311 674.076C387.07 676.122 390.972 677.973 394.995 679.617C397.238 702.306 408.684 723.626 427.37 739.925C452.511 761.336 489.54 772.173 537.539 772.173H538.031H538.524C586.511 772.173 623.552 761.342 648.693 739.925C667.38 723.627 678.826 702.307 681.068 679.617C685.091 677.973 688.993 676.123 692.752 674.076C706.046 666.801 717.267 657.098 725.6 645.67C758.239 650.132 788.515 662.925 812.42 682.354C813.58 683.324 814.954 684.089 816.463 684.605C817.972 685.12 819.587 685.376 821.213 685.358C822.839 685.339 824.445 685.047 825.938 684.497C827.43 683.947 828.779 683.151 829.908 682.154C831.037 681.158 831.922 679.981 832.513 678.691C833.103 677.402 833.388 676.026 833.349 674.642C833.311 673.259 832.951 671.896 832.29 670.631C831.628 669.367 830.679 668.227 829.497 667.276C804.892 647.096 774.22 633.086 740.858 626.788C744.724 621.7 749.119 615.671 753.841 608.826C785.469 610.212 820.212 616.574 847.668 634C850.283 635.661 853.567 636.37 856.797 635.97C860.026 635.571 862.937 634.096 864.889 631.871C866.841 629.645 867.674 626.851 867.204 624.103C866.735 621.354 865.002 618.877 862.386 617.217C837.581 601.465 805.048 591.787 767.098 588.652C771.262 581.989 775.51 574.859 779.725 567.343C833.338 567.513 865.216 583.218 867.266 584.265C870.055 585.707 873.404 586.147 876.574 585.489C879.745 584.83 882.478 583.127 884.173 580.753C885.867 578.38 886.385 575.531 885.611 572.833C884.837 570.135 882.835 567.809 880.046 566.367C877.86 565.235 845.246 548.838 790.679 546.656C795.846 536.312 800.79 525.446 805.284 514.178C840.093 426.87 831.928 354.194 781.659 303.982C742.364 264.733 702.374 244.093 662.798 242.602C630.202 241.379 599.111 252.936 570.441 276.944C556.66 288.492 545.397 298.116 538.204 304.323C530.902 298.169 519.489 288.565 505.609 276.944C476.942 252.936 445.844 241.377 413.252 242.602C373.684 244.082 333.694 264.733 294.391 303.982C244.125 354.186 235.96 426.87 270.767 514.178C275.351 525.647 280.399 536.697 285.66 547.201ZM335.825 586.876C332.008 580.984 328.078 574.658 324.134 567.963C329.547 568.273 335.107 568.727 340.868 569.385C338.441 575.042 336.75 580.908 335.825 586.878V586.876ZM631.033 725.34C611.937 741.464 583.408 750.102 546.079 751.119V751.107C543.334 751.182 540.634 751.22 537.98 751.222C535.355 751.222 532.691 751.183 529.987 751.107C492.645 750.083 464.126 741.455 445.03 725.329C432.888 714.832 424.605 701.551 421.193 687.111C443.675 690.971 467.02 688.539 487.743 680.18C505.972 672.55 523.09 663.133 538.748 652.12C553.721 663.321 570.395 672.758 588.322 680.18C609.045 688.539 632.389 690.971 654.869 687.111C651.462 701.556 643.178 714.841 631.033 725.342V725.34ZM515.246 576.611C493.497 570.811 476.435 563.755 464.06 555.443C467.013 551.393 472.656 545.392 480.818 544.135C490.827 542.596 503.69 548.344 518.189 560.758C518.61 561.713 519.195 562.609 519.924 563.419C521.946 565.598 524.902 567.005 528.143 567.33C531.384 567.655 534.643 566.871 537.205 565.151C559.687 550.053 578.643 543.919 592.009 547.393C598.546 549.33 604.039 553.214 607.473 558.329C594.886 565.792 578.218 572.177 557.468 577.485C554.446 578.255 551.888 579.984 550.321 582.313C548.754 584.643 548.299 587.396 549.049 590.003C549.629 592.008 549.376 594.123 548.333 595.987C548.03 596.396 547.117 597.64 543.288 598.339C541.354 598.696 539.487 599.278 537.741 600.071C531.028 598.877 527.376 597.087 526.212 595.631C525.904 595.203 525.718 594.72 525.666 594.219C525.614 593.719 525.699 593.216 525.914 592.748C526.89 589.408 526.328 585.877 524.345 582.878C522.362 579.879 519.107 577.638 515.246 576.614V576.611ZM740.245 586.872C739.379 581.326 737.854 575.869 735.692 570.585C741.106 569.781 746.383 569.157 751.518 568.665C747.714 575.093 743.924 581.185 740.245 586.868V586.872ZM313.131 317.564C347.829 282.92 381.868 264.74 414.335 263.525C439.842 262.556 464.751 272.111 488.351 291.874C512.825 312.366 529.64 326.589 529.652 326.597C531.967 328.554 535.1 329.648 538.363 329.64C541.625 329.631 544.75 328.52 547.051 326.551C547.085 326.522 547.107 326.486 547.142 326.457C547.302 326.315 563.593 312.054 587.702 291.866C611.307 272.1 636.209 262.549 661.718 263.517C694.185 264.731 728.236 282.912 762.922 317.555C807.89 362.472 814.301 426.359 781.969 507.444C776.519 521.113 770.265 534.346 763.737 546.769C750.401 547.42 737.136 548.87 724.04 551.11C720.404 546.635 716.296 542.451 711.768 538.609L714.229 522.889C715.933 511.846 713.285 500.633 706.698 491.008L679.729 451.743C678.922 450.542 677.844 449.489 676.556 448.644C675.268 447.8 673.796 447.182 672.225 446.824C670.655 446.467 669.017 446.378 667.405 446.563C665.794 446.747 664.242 447.202 662.838 447.9C661.435 448.598 660.208 449.526 659.228 450.63C658.248 451.734 657.535 452.992 657.131 454.332C656.726 455.672 656.637 457.067 656.869 458.436C657.102 459.805 657.651 461.121 658.485 462.309L685.461 501.582C689.293 507.184 690.835 513.709 689.844 520.136L689.28 523.731C686.324 522.203 683.259 520.832 680.103 519.627C678.617 519.087 677.02 518.802 675.404 518.788C673.788 518.774 672.184 519.031 670.685 519.544C669.186 520.057 667.82 520.816 666.665 521.778C665.511 522.74 664.59 523.887 663.956 525.152C663.322 526.417 662.988 527.776 662.971 529.151C662.954 530.526 663.256 531.89 663.859 533.166C664.462 534.442 665.354 535.604 666.485 536.587C667.616 537.569 668.963 538.352 670.449 538.892C677.748 541.882 684.502 545.753 690.501 550.386L690.661 550.505C693.178 552.425 695.561 554.468 697.797 556.626C684.843 559.852 672.12 563.714 659.69 568.191C658.192 568.72 656.83 569.496 655.685 570.474C654.54 571.452 653.634 572.613 653.018 573.89C652.402 575.167 652.089 576.536 652.098 577.916C652.106 579.297 652.435 580.662 653.066 581.934C653.696 583.206 654.617 584.36 655.773 585.328C656.93 586.296 658.3 587.06 659.805 587.576C661.31 588.091 662.92 588.349 664.543 588.333C666.165 588.317 667.768 588.028 669.258 587.484C682.92 582.55 696.967 578.428 711.298 575.146C713.286 579.366 714.718 583.761 715.567 588.25C697.295 589.265 679.157 591.598 661.349 595.223C659.786 595.572 658.319 596.179 657.031 597.01C655.744 597.841 654.661 598.88 653.846 600.067C653.03 601.254 652.497 602.566 652.277 603.928C652.058 605.29 652.155 606.676 652.565 608.006C652.974 609.336 653.688 610.585 654.665 611.68C655.641 612.776 656.862 613.697 658.257 614.391C659.652 615.085 661.194 615.538 662.795 615.725C664.396 615.912 666.024 615.829 667.587 615.481C683.377 612.348 699.434 610.284 715.607 609.308C714.772 613.956 713.37 618.518 711.423 622.919C694.454 621.585 677.353 622.168 660.564 624.653C657.369 625.216 654.567 626.836 652.776 629.158C650.984 631.479 650.35 634.31 651.012 637.029C651.674 639.748 653.579 642.132 656.306 643.657C659.034 645.181 662.362 645.721 665.557 645.157C675.976 643.674 686.542 643.071 697.101 643.356C685.233 655.043 669.205 663.112 651.454 666.339C633.704 669.566 615.2 667.773 598.756 661.233C581.247 653.909 565.064 644.482 550.705 633.242V618.347C558.321 616.752 564.927 612.731 569.162 607.113C571.813 603.461 573.397 599.323 573.783 595.043C597.408 588.278 616.255 579.824 630.325 569.682C630.541 569.54 630.745 569.389 630.947 569.234C642.408 561.236 651.177 550.798 656.361 538.982C669.157 508.424 650.002 480.718 643.825 472.953C634.567 461.314 630.354 437.401 629.513 429.161C629.389 427.781 628.946 426.436 628.208 425.203C627.471 423.97 626.453 422.874 625.214 421.978C623.976 421.082 622.541 420.403 620.992 419.982C619.444 419.56 617.812 419.404 616.193 419.522C614.573 419.64 612.996 420.03 611.555 420.67C610.113 421.31 608.835 422.186 607.794 423.249C606.752 424.311 605.969 425.539 605.488 426.86C605.008 428.182 604.84 429.572 604.995 430.949C605.354 434.528 608.932 466.449 623.451 484.69C626.68 488.75 642.331 510.114 633.184 531.954C631.359 536.208 628.795 540.206 625.578 543.813C619.185 536.127 610.051 530.4 599.531 527.479C580.105 522.29 557.268 527.419 531.549 542.674C512.158 527.259 493.563 520.831 476.18 523.584C464.517 525.71 454.178 531.408 447.129 539.595C445.365 537.1 443.899 534.461 442.753 531.718C433.825 509.963 449.383 488.734 452.597 484.7C467.116 466.459 470.689 434.538 471.053 430.959C471.311 428.203 470.277 425.472 468.176 423.362C466.076 421.252 463.08 419.935 459.842 419.698C456.605 419.461 453.388 420.323 450.895 422.097C448.402 423.871 446.835 426.411 446.536 429.165C445.696 437.401 441.483 461.323 432.223 472.963C426.091 480.674 407.046 508.197 419.535 538.622C429.553 563.038 456.977 581.893 501.101 594.718C501.208 599.263 502.865 603.682 505.87 607.44C510.11 612.738 516.929 616.616 526.108 619.097V633.839C511.212 644.631 494.821 653.834 477.302 661.244C460.968 667.741 442.598 669.555 424.95 666.413C407.301 663.272 391.326 655.345 379.422 643.821C393.176 642.863 407.016 643.317 420.642 645.172C423.833 645.722 427.151 645.173 429.867 643.646C432.584 642.119 434.478 639.738 435.136 637.024C435.793 634.311 435.16 631.486 433.374 629.169C431.589 626.852 428.797 625.232 425.611 624.663C405.586 621.743 385.154 621.453 365.026 623.804C362.796 618.967 361.227 613.928 360.35 608.786C379.963 609.473 399.458 611.716 418.58 615.487C421.739 616.192 425.098 615.801 427.917 614.399C430.737 612.997 432.787 610.699 433.616 608.011C434.445 605.323 433.985 602.465 432.337 600.066C430.69 597.666 427.99 595.922 424.831 595.217C403.748 590.954 382.226 588.457 360.572 587.762C361.551 582.761 363.254 577.883 365.641 573.238C383.187 576.712 400.345 581.477 416.921 587.477C419.928 588.557 423.315 588.577 426.339 587.531C429.362 586.486 431.774 584.461 433.043 581.903C434.312 579.345 434.335 576.462 433.106 573.89C431.877 571.317 429.498 569.265 426.492 568.185C411.465 562.759 396.004 558.248 380.227 554.685C381.743 553.324 383.269 552.063 384.785 550.888C385.277 550.57 385.74 550.22 386.17 549.841C392.017 545.432 398.566 541.747 405.623 538.896C408.626 537.807 410.996 535.747 412.214 533.17C413.432 530.593 413.397 527.711 412.116 525.156C410.836 522.601 408.416 520.584 405.388 519.548C402.359 518.512 398.972 518.542 395.969 519.631C392.814 520.838 389.75 522.21 386.793 523.737L386.229 520.144C385.238 513.717 386.779 507.191 390.612 501.589L417.588 462.315C418.422 461.128 418.971 459.811 419.203 458.442C419.436 457.073 419.347 455.678 418.942 454.338C418.537 452.998 417.825 451.74 416.845 450.636C415.865 449.532 414.638 448.604 413.234 447.906C411.831 447.208 410.279 446.753 408.667 446.569C407.056 446.384 405.418 446.473 403.847 446.831C402.277 447.188 400.805 447.806 399.517 448.651C398.229 449.495 397.15 450.548 396.343 451.749L369.367 491.022C362.781 500.648 360.132 511.86 361.837 522.904L364.298 538.624C360.249 542.062 356.535 545.773 353.192 549.722C339.628 547.766 325.911 546.674 312.156 546.457C305.687 534.13 299.498 521.009 294.096 507.46C261.753 426.376 268.163 362.48 313.131 317.564Z" fill="#20374F"/>
<path d="M623.715 416.804C624.415 416.907 625.124 416.96 625.834 416.961C628.125 416.952 630.367 416.398 632.308 415.362C634.249 414.326 635.81 412.849 636.817 411.097C641.701 413.891 647.067 416.02 652.722 417.409C657.865 418.676 663.191 419.324 668.545 419.333C677.161 419.405 685.648 417.548 693.154 413.947C701.477 409.815 708.313 403.824 712.922 396.623C717.53 389.423 719.737 381.286 719.301 373.095C721.619 373.558 722.992 373.903 723.135 373.933C726.24 374.71 729.58 374.416 732.431 373.113C735.283 371.81 737.416 369.603 738.369 366.971C739.322 364.339 739.018 361.494 737.522 359.051C736.027 356.609 733.461 354.766 730.38 353.922C728.411 353.403 681.654 341.421 646.968 359.501C629.105 368.815 617.91 384.019 613.694 404.69C613.417 406.045 613.456 407.434 613.809 408.776C614.163 410.119 614.824 411.389 615.754 412.514C616.685 413.639 617.867 414.597 619.233 415.333C620.599 416.069 622.122 416.569 623.715 416.804ZM659.747 377.407C670.189 371.937 682.841 370.406 694.089 370.486C695.219 375.357 694.552 380.406 692.179 384.941C689.806 389.477 685.844 393.278 680.835 395.824C674.239 398.689 666.578 399.216 659.526 397.289C654.102 396.02 649.2 393.493 645.366 389.99C648.857 384.844 653.8 380.519 659.747 377.407Z" fill="#20374F"/>
<path d="M352.924 373.943C352.995 373.926 354.388 373.574 356.768 373.105C356.332 381.297 358.538 389.433 363.147 396.634C367.756 403.835 374.592 409.826 382.915 413.958C390.42 417.558 398.907 419.416 407.523 419.344C412.878 419.334 418.206 418.686 423.349 417.419C429.003 416.03 434.368 413.901 439.252 411.108C440.258 412.859 441.82 414.336 443.761 415.372C445.701 416.408 447.944 416.962 450.235 416.971C450.945 416.97 451.654 416.918 452.353 416.814C453.946 416.579 455.468 416.08 456.833 415.344C458.198 414.609 459.38 413.651 460.31 412.527C461.241 411.403 461.902 410.134 462.256 408.793C462.61 407.451 462.65 406.063 462.374 404.708C458.159 384.038 446.964 368.834 429.1 359.519C394.419 341.44 347.667 353.422 345.676 353.941C342.585 354.777 340.007 356.618 338.503 359.064C336.998 361.509 336.69 364.361 337.644 366.999C338.599 369.638 340.739 371.848 343.599 373.151C346.459 374.453 349.807 374.741 352.916 373.954L352.924 373.943ZM381.975 370.486C393.223 370.406 405.875 371.937 416.316 377.407C422.264 380.519 427.207 384.844 430.698 389.99C426.864 393.493 421.962 396.02 416.538 397.289C412.015 398.617 407.155 398.884 402.469 398.061C397.784 397.239 393.445 395.358 389.909 392.615C386.372 389.873 383.77 386.371 382.373 382.477C380.977 378.583 380.839 374.441 381.975 370.486V370.486Z" fill="#20374F"/>
<path d="M455.86 608.765C458.706 608.765 461.465 607.926 463.665 606.391C465.866 604.855 467.373 602.718 467.93 600.343C468.486 597.968 468.059 595.502 466.719 593.366C465.379 591.229 463.21 589.554 460.582 588.625C457.953 587.697 455.028 587.572 452.304 588.272C449.579 588.973 447.225 590.455 445.641 592.467C444.057 594.479 443.341 596.896 443.616 599.307C443.891 601.717 445.14 603.972 447.149 605.687C449.463 607.649 452.593 608.755 455.86 608.765V608.765Z" fill="#20374F"/>
<path d="M455.86 639.506C458.697 639.498 461.443 638.655 463.631 637.118C465.819 635.582 467.313 633.448 467.86 631.08C468.407 628.712 467.973 626.255 466.631 624.129C465.289 622.002 463.123 620.337 460.501 619.417C457.878 618.496 454.962 618.378 452.249 619.081C449.535 619.784 447.192 621.266 445.618 623.274C444.044 625.282 443.336 627.692 443.615 630.094C443.894 632.496 445.143 634.742 447.149 636.448C449.466 638.405 452.596 639.503 455.86 639.506V639.506Z" fill="#20374F"/>
<path d="M486.796 626.334C489.229 626.334 491.608 625.72 493.632 624.57C495.655 623.419 497.232 621.784 498.163 619.871C499.095 617.958 499.338 615.852 498.864 613.821C498.389 611.79 497.217 609.925 495.496 608.461C493.775 606.996 491.583 605.999 489.196 605.595C486.809 605.191 484.335 605.398 482.087 606.191C479.839 606.983 477.917 608.325 476.565 610.047C475.213 611.769 474.491 613.793 474.491 615.864C474.492 617.238 474.812 618.598 475.432 619.867C476.053 621.135 476.961 622.287 478.106 623.256C480.416 625.213 483.537 626.319 486.796 626.334V626.334Z" fill="#20374F"/>
<path d="M630.339 587.825C627.492 587.824 624.732 588.664 622.531 590.201C620.33 591.738 618.823 593.878 618.268 596.254C617.713 598.631 618.144 601.097 619.487 603.234C620.83 605.37 623.003 607.044 625.634 607.97C628.265 608.896 631.193 609.017 633.917 608.312C636.641 607.607 638.994 606.12 640.574 604.104C642.153 602.088 642.863 599.669 642.581 597.258C642.298 594.846 641.042 592.593 639.026 590.882C636.715 588.932 633.595 587.833 630.339 587.825Z" fill="#20374F"/>
<path d="M630.339 618.565C627.48 618.556 624.705 619.391 622.489 620.929C620.272 622.466 618.751 624.61 618.186 626.996C617.62 629.381 618.044 631.859 619.386 634.008C620.728 636.156 622.905 637.842 625.544 638.777C628.184 639.713 631.124 639.84 633.861 639.137C636.599 638.434 638.965 636.944 640.556 634.922C642.147 632.9 642.864 630.472 642.585 628.05C642.306 625.628 641.048 623.364 639.026 621.643C636.718 619.687 633.598 618.581 630.339 618.565Z" fill="#20374F"/>
<path d="M599.381 605.394C596.534 605.393 593.774 606.233 591.573 607.77C589.372 609.307 587.865 611.446 587.31 613.823C586.755 616.199 587.186 618.666 588.529 620.803C589.872 622.939 592.045 624.613 594.676 625.539C597.307 626.465 600.235 626.586 602.959 625.881C605.683 625.176 608.036 623.689 609.616 621.673C611.195 619.657 611.905 617.238 611.623 614.826C611.34 612.415 610.084 610.162 608.068 608.451C605.762 606.494 602.638 605.394 599.381 605.394V605.394Z" fill="#20374F"/>
<path d="M10.4762 534.547C11.0516 536.901 12.562 539.015 14.7534 540.534C16.9449 542.052 19.6838 542.882 22.51 542.885C23.3566 542.884 24.201 542.81 25.0299 542.663C27.6018 542.202 29.9314 541.049 31.6757 539.376C33.4199 537.703 34.4866 535.598 34.7184 533.37H34.775C36.0375 521.704 41.9387 509.498 52.3335 496.992C45.096 543.17 44.3823 612.92 68.1102 694.574V694.601V694.629C68.9399 697.278 70.9578 699.544 73.7302 700.941C76.5026 702.338 79.8084 702.754 82.9373 702.1C86.0662 701.445 88.7685 699.772 90.4636 697.441C92.1587 695.109 92.7114 692.305 92.003 689.63C88.5405 677.583 89.5593 661.478 94.8994 642.209C94.9142 645.756 94.9962 649.382 95.1455 653.085C97.2274 703.518 113.738 777.692 180.563 844.649C182.531 846.603 185.276 847.872 188.273 848.214C191.271 848.555 194.312 847.945 196.815 846.5C199.317 845.056 201.107 842.877 201.842 840.38C202.577 837.884 202.206 835.245 200.799 832.966C194.27 822.496 193.591 803.872 198.719 779.778C199.539 784.309 200.496 788.973 201.608 793.728C214.353 848.204 241.967 888.307 281.44 909.706C283.72 910.947 286.419 911.512 289.116 911.312C291.813 911.112 294.356 910.159 296.35 908.601C298.344 907.042 299.676 904.967 300.139 902.698C300.603 900.428 300.171 898.092 298.912 896.053L298.956 896.034C291.7 883.593 286.531 870.347 283.6 856.683C301.178 892.437 329.341 931.932 374.291 962.89C376.561 964.464 379.418 965.296 382.346 965.234C385.273 965.172 388.078 964.222 390.254 962.554C392.43 960.887 393.833 958.612 394.21 956.141C394.587 953.67 393.913 951.165 392.31 949.08L392.357 949.055C386.859 941.845 383.66 932.255 381.989 921.893C394.99 950.669 415.484 982.62 447.072 1003.83C448.952 1005.1 451.224 1005.87 453.609 1006.05C455.995 1006.23 458.39 1005.81 460.502 1004.85C462.613 1003.89 464.349 1002.42 465.496 1000.63C466.644 998.844 467.153 996.809 466.961 994.778C466.625 990.749 466.552 986.708 466.744 982.672C479.984 1020.03 500.808 1047.81 528.759 1065.37C531.452 1067.08 534.719 1068 538.076 1068C541.433 1068 544.7 1067.08 547.393 1065.37C574.866 1048.11 596.118 1019.71 609.257 982.846C609.441 986.825 609.366 990.81 609.031 994.782C608.838 996.814 609.347 998.849 610.495 1000.64C611.642 1002.43 613.378 1003.89 615.49 1004.85C617.602 1005.82 619.998 1006.23 622.384 1006.05C624.77 1005.87 627.042 1005.1 628.922 1003.84C660.51 982.616 681.004 950.672 694.005 921.893C692.337 932.259 689.135 941.847 683.64 949.059L683.686 949.084C682.089 951.169 681.42 953.672 681.799 956.14C682.178 958.608 683.58 960.88 685.754 962.546C687.927 964.212 690.728 965.162 693.652 965.226C696.577 965.29 699.432 964.463 701.703 962.894C746.653 931.936 774.816 892.437 792.396 856.683C789.465 870.348 784.296 883.596 777.04 896.038L777.085 896.057C775.83 898.096 775.402 900.431 775.867 902.698C776.332 904.966 777.664 907.039 779.656 908.596C781.649 910.153 784.19 911.106 786.884 911.307C789.579 911.509 792.276 910.947 794.557 909.71C834.039 888.311 861.646 848.209 874.388 793.733C875.5 788.977 876.458 784.309 877.277 779.784C882.406 803.866 881.726 822.502 875.198 832.96C873.788 835.239 873.415 837.879 874.15 840.377C874.884 842.875 876.674 845.055 879.179 846.501C881.683 847.946 884.725 848.556 887.724 848.213C890.723 847.87 893.469 846.599 895.436 844.643C962.259 777.686 978.769 703.505 980.853 653.079C981.006 649.377 981.088 645.751 981.1 642.203C986.437 661.468 987.454 677.577 983.991 689.624C983.283 692.299 983.835 695.103 985.53 697.435C987.226 699.766 989.928 701.439 993.057 702.093C996.186 702.748 999.491 702.332 1002.26 700.935C1005.04 699.538 1007.05 697.272 1007.88 694.622V694.595L1007.9 694.534C1031.62 612.892 1030.9 543.157 1023.67 496.986C1034.06 509.496 1039.96 521.696 1041.23 533.363H1041.28C1041.51 535.591 1042.58 537.697 1044.32 539.37C1046.07 541.043 1048.4 542.195 1050.97 542.657C1051.8 542.803 1052.64 542.878 1053.49 542.879C1056.32 542.877 1059.06 542.047 1061.25 540.528C1063.44 539.009 1064.95 536.895 1065.53 534.54C1088.3 441.463 1046.1 354.756 1014.64 306.4L1052.97 326.802C1055.13 327.951 1057.65 328.501 1060.19 328.379C1062.73 328.257 1065.16 327.467 1067.16 326.119C1069.15 324.771 1070.6 322.931 1071.31 320.852C1072.02 318.773 1071.96 316.557 1071.13 314.51C1035.03 225.414 989.604 170.772 956.875 140.068C952.957 101.29 932.635 86.4228 914.469 81.016C898.473 76.2626 881 77.4352 863.865 81.818C861.537 80.9993 859.231 80.214 856.975 79.4979L908.828 69.4235C911.371 68.9292 913.663 67.7604 915.374 66.0856C917.085 64.4109 918.126 62.3168 918.348 60.1057C918.569 57.8945 917.959 55.6807 916.606 53.7837C915.253 51.8866 913.226 50.4045 910.819 49.5512C906.855 48.144 834.386 23.0115 751.354 30.7049L772.091 19.3972C774.301 18.1928 775.999 16.419 776.94 14.3349C777.881 12.2507 778.013 9.96529 777.32 7.81224C776.626 5.65919 775.141 3.75126 773.083 2.36696C771.024 0.982663 768.5 0.194488 765.878 0.117497C759.324 -0.0584011 604.488 -3.94701 536.629 52.1729C468.898 -3.94701 316.625 -0.0584011 310.18 0.134249C307.559 0.212494 305.035 1.00157 302.978 2.38634C300.921 3.7711 299.437 5.67908 298.744 7.83184C298.051 9.98461 298.185 12.2695 299.126 14.3531C300.067 16.4366 301.765 18.2099 303.974 19.414L324.712 30.7217C241.694 23.0303 169.211 48.1503 165.246 49.5679C162.839 50.4216 160.813 51.9041 159.46 53.8014C158.107 55.6987 157.498 57.9128 157.72 60.124C157.942 62.3352 158.984 64.4291 160.695 66.1036C162.407 67.7781 164.699 68.9466 167.242 69.4402L219.093 79.5146C216.662 80.2894 214.171 81.1438 211.644 82.0274C194.878 77.5106 177.659 76.2563 161.609 81.0223C132.47 89.679 121.794 114.497 119.169 140.262C86.4857 170.85 41.0355 225.408 4.88263 314.515C4.05262 316.561 3.98877 318.777 4.69989 320.856C5.41101 322.935 6.86211 324.775 8.85336 326.123C10.8446 327.471 13.278 328.261 15.8186 328.383C18.3591 328.506 20.8817 327.955 23.0391 326.807L61.3575 306.407C29.8926 354.76 -12.3018 441.469 10.4762 534.547ZM956.609 172.303C981.124 198.92 1009.8 237.846 1035.47 292.76L983.639 265.173C971.622 252.134 958.792 239.653 945.203 227.784C950.783 209.587 954.597 191.031 956.609 172.303ZM906.35 100.796C942.323 111.476 934.173 174.255 924.713 210.892C919.791 207.047 914.881 203.36 909.982 199.829C924.883 174.181 920.02 141.378 897.567 128.035C885.332 120.777 868.037 119.927 850.111 125.715C836.762 130.173 824.838 137.251 815.31 146.371C809.116 143.741 803.136 141.345 797.419 139.196C825.03 119.284 873.884 91.1448 906.35 100.796ZM890.15 186.218C873.499 175.381 856.022 165.496 837.834 156.627C843.908 151.732 851.038 147.884 858.83 145.294C868.886 142.046 878.099 142.019 883.479 145.213C893.834 151.356 897.491 169.807 890.15 186.218ZM169.715 100.796C202.157 91.149 249.234 120.172 275.413 140.434C271.003 142.134 266.454 143.972 261.765 145.946C252.053 136.777 239.885 129.738 226.294 125.424C208.14 119.823 190.721 120.777 178.506 128.027C156.358 141.179 152.15 173.025 167.501 198.805C162.087 202.685 156.651 206.755 151.195 211.015C141.757 174.334 133.668 111.503 169.715 100.796ZM239.142 156.187C221.136 164.924 203.824 174.656 187.316 185.322C179.547 168.967 182.561 151.162 192.582 145.213C198.07 141.954 207.537 141.923 217.907 145.12C225.764 147.599 232.977 151.358 239.142 156.187ZM40.5975 292.76C66.2424 237.896 94.9044 199.052 119.38 172.508C121.374 191.21 125.16 209.743 130.7 227.92C117.171 239.748 104.395 252.182 92.4262 265.171L40.5975 292.76ZM110.487 279.49C188.76 194.02 276.939 159.921 322.541 147.189C325.581 146.283 328.081 144.399 329.506 141.942C330.931 139.484 331.167 136.649 330.163 134.045C329.16 131.441 326.996 129.276 324.138 128.014C321.279 126.753 317.953 126.495 314.873 127.296C310.385 128.553 305.507 129.997 300.288 131.664C283.333 117.501 264.49 105.073 244.142 94.6335C254.297 92.15 264.748 90.6447 275.297 90.146C278.316 90.1303 281.222 89.1708 283.464 87.4502C285.705 85.7296 287.125 83.3678 287.453 80.8143C287.782 78.2609 286.995 75.6938 285.244 73.6016C283.492 71.5094 280.898 70.038 277.955 69.4675L218.165 57.8477C261.883 49.3878 331.627 43.0304 394.461 68.6655C397.285 69.818 400.52 70.0104 403.506 69.2035C406.491 68.3965 409.003 66.651 410.528 64.3227C412.054 61.9945 412.478 59.2588 411.715 56.6736C410.951 54.0883 409.058 51.8481 406.421 50.4097L354.341 22.0189C402.838 24.7412 479.824 34.3486 519.467 67.1934C524.028 71.0099 530.167 73.1507 536.564 73.1554C542.961 73.1601 549.104 71.0283 553.673 67.2185C593.628 34.2187 672.489 24.6658 721.774 21.9875L669.642 50.4097C667.002 51.8473 665.107 54.088 664.342 56.6744C663.577 59.2609 664.001 61.9981 665.528 64.3275C667.054 66.6569 669.568 68.4029 672.555 69.209C675.543 70.0152 678.78 69.8208 681.605 68.6655C744.441 43.0283 814.18 49.3878 857.898 57.8477L798.113 69.4633C795.172 70.0331 792.58 71.5021 790.828 73.5913C789.077 75.6804 788.288 78.2443 788.611 80.7958C788.935 83.3473 790.349 85.7088 792.584 87.4318C794.819 89.1547 797.72 90.1191 800.736 90.1418C810.696 90.5992 820.569 91.9703 830.183 94.2314C809.23 104.416 789.685 116.568 771.914 130.458C768.144 129.294 764.551 128.234 761.197 127.298C758.117 126.497 754.791 126.755 751.933 128.016C749.074 129.278 746.911 131.444 745.907 134.047C744.903 136.651 745.139 139.486 746.564 141.944C747.989 144.401 750.49 146.285 753.529 147.191C799.132 159.917 887.313 194.022 965.584 279.494C967.356 281.486 1051.39 377.26 1047.19 489.133C1043.23 483.988 1038.9 479.058 1034.22 474.371C1015.1 454.97 998.316 433.98 984.136 411.717C960.541 374.849 925.136 344.435 882.034 324.009C879.182 322.66 875.816 322.33 872.678 323.092C869.539 323.854 866.886 325.646 865.3 328.073C863.714 330.501 863.327 333.365 864.223 336.035C865.118 338.705 867.224 340.964 870.077 342.313C909.108 360.815 941.169 388.362 962.535 421.752C970.592 434.318 979.408 446.521 988.947 458.311C991.307 464.365 1000.32 490.03 1002.89 534.743C1004.44 562.981 1003.2 591.28 999.199 619.342C991.079 597.634 980.702 576.584 968.192 556.442C966.734 554.17 964.339 552.439 961.469 551.582C958.599 550.725 955.457 550.803 952.651 551.8C949.844 552.798 947.571 554.645 946.271 556.985C944.97 559.325 944.735 561.991 945.609 564.47C945.739 564.839 958.521 601.834 956.264 653.115C953.889 707.025 936.619 755.701 904.938 798.375C902.085 761.332 883.956 721.217 881.067 715.01C879.991 712.705 877.989 710.8 875.418 709.634C872.846 708.468 869.871 708.116 867.023 708.642C864.175 709.167 861.639 710.536 859.866 712.504C858.093 714.472 857.198 716.912 857.341 719.388C858.004 743.109 855.605 766.82 850.188 790.095C844.838 812.769 834.785 840.526 815.969 863.29C828.096 814.539 821.383 763.168 820.992 760.373C820.643 757.823 819.206 755.471 816.953 753.764C814.701 752.057 811.79 751.114 808.773 751.113H808.527C805.469 751.162 802.542 752.18 800.317 753.966C798.092 755.752 796.729 758.18 796.494 760.775C796.403 761.803 787.405 851.505 719.145 919.316C722.957 887.212 714.974 854.51 714.47 852.516C713.866 850.105 712.281 847.952 709.994 846.437C707.708 844.923 704.867 844.143 701.971 844.236C699.075 844.329 696.311 845.289 694.166 846.946C692.02 848.603 690.631 850.852 690.242 853.295C690.112 854.112 678.078 926.278 633.103 971.325C630.926 951.747 627.424 932.293 622.615 913.059C621.975 910.557 620.28 908.342 617.852 906.832C615.423 905.321 612.428 904.62 609.433 904.862C606.438 905.103 603.65 906.269 601.598 908.14C599.545 910.011 598.368 912.458 598.291 915.017C598.264 915.93 594.976 1004.17 538.093 1044.97C481.338 1004.25 477.782 915.911 477.752 915.004C477.674 912.444 476.497 909.998 474.442 908.127C472.388 906.256 469.599 905.091 466.603 904.851C463.607 904.611 460.612 905.314 458.184 906.827C455.756 908.339 454.063 910.556 453.426 913.059C448.621 932.294 445.121 951.748 442.943 971.325C397.965 926.278 385.931 854.114 385.803 853.299C385.417 850.854 384.029 848.604 381.883 846.945C379.738 845.286 376.973 844.326 374.076 844.232C371.179 844.138 368.336 844.918 366.049 846.434C363.762 847.949 362.177 850.103 361.574 852.516C361.081 854.503 353.093 887.206 356.898 919.316C288.638 851.505 279.643 761.803 279.55 760.785C279.318 758.189 277.958 755.76 275.735 753.972C273.513 752.183 270.587 751.163 267.528 751.111C264.469 751.058 261.497 751.977 259.192 753.689C256.887 755.4 255.413 757.781 255.059 760.366C254.677 763.162 247.957 814.533 260.082 863.284C241.266 840.519 231.213 812.765 225.875 790.089C220.46 766.816 218.061 743.107 218.721 719.388C218.867 716.911 217.974 714.47 216.201 712.501C214.429 710.532 211.893 709.162 209.044 708.635C206.195 708.109 203.22 708.46 200.647 709.626C198.074 710.792 196.072 712.698 194.996 715.003C192.1 721.21 173.97 761.325 171.125 798.369C139.446 755.695 122.173 707.019 119.799 653.108C117.542 601.828 130.326 564.833 130.452 564.474C131.331 561.995 131.099 559.326 129.8 556.984C128.501 554.641 126.229 552.792 123.421 551.792C120.613 550.792 117.469 550.714 114.597 551.571C111.725 552.429 109.329 554.162 107.871 556.435C95.3614 576.579 84.9839 597.63 76.8611 619.34C72.8561 591.278 71.6214 562.979 73.1698 534.741C75.7414 490.021 84.7556 464.355 87.1156 458.309C96.654 446.519 105.47 434.317 113.528 421.752C134.896 388.363 166.957 360.817 205.989 342.315C207.401 341.647 208.645 340.749 209.65 339.671C210.654 338.594 211.399 337.359 211.843 336.037C212.286 334.715 212.42 333.331 212.235 331.965C212.05 330.599 211.551 329.277 210.765 328.076C209.98 326.874 208.925 325.815 207.659 324.961C206.393 324.106 204.942 323.472 203.388 323.094C201.834 322.717 200.208 322.604 198.602 322.761C196.997 322.918 195.444 323.343 194.031 324.011C150.93 344.438 115.524 374.851 91.9242 411.717C77.746 433.978 60.9683 454.966 41.8451 474.364C37.1715 479.047 32.8443 483.973 28.8886 489.112C24.7543 377.396 108.73 281.469 110.479 279.49H110.487Z" fill="#20374F"/>
</g>
<defs>
<filter id="filter0_d" x="0" y="0" width="1076" height="1076" filterUnits="userSpaceOnUse" color-interpolation-filters="sRGB">
<feFlood flood-opacity="0" result="BackgroundImageFix"/>
<feColorMatrix in="SourceAlpha" type="matrix" values="0 0 0 0 0 0 0 0 0 0 0 0 0 0 0 0 0 0 127 0"/>
<feOffset dy="4"/>
<feGaussianBlur stdDeviation="2"/>
<feColorMatrix type="matrix" values="0 0 0 0 0 0 0 0 0 0 0 0 0 0 0 0 0 0 0.25 0"/>
<feBlend mode="normal" in2="BackgroundImageFix" result="effect1_dropShadow"/>
<feBlend mode="normal" in="SourceGraphic" in2="effect1_dropShadow" result="shape"/>
</filter>
</defs>
</svg>
